<svg width="47" height="12" viewBox="0 0 47 12" fill="none" xmlns="http://www.w3.org/2000/svg">
<path d="M0.758523 0.272727H3.03409L5.4375 6.13636H5.53977L7.94318 0.272727H10.2188V9H8.42898V3.3196H8.35653L6.09801 8.95739H4.87926L2.62074 3.2983H2.5483V9H0.758523V0.272727ZM15.783 4.69602V6.13636H11.8029V4.69602H15.783ZM22.7759 4.32102L21.114 4.4233C21.0856 4.28125 21.0245 4.15341 20.9308 4.03977C20.837 3.9233 20.7134 3.83097 20.56 3.76278C20.4094 3.69176 20.229 3.65625 20.0188 3.65625C19.7376 3.65625 19.5004 3.71591 19.3072 3.83523C19.114 3.9517 19.0174 4.10795 19.0174 4.30398C19.0174 4.46023 19.0799 4.59233 19.2049 4.70028C19.3299 4.80824 19.5444 4.89489 19.8484 4.96023L21.033 5.19886C21.6694 5.32955 22.1438 5.53977 22.4563 5.82955C22.7688 6.11932 22.9251 6.5 22.9251 6.97159C22.9251 7.40057 22.7987 7.77699 22.5458 8.10085C22.2958 8.42472 21.9521 8.67756 21.5146 8.85938C21.0799 9.03835 20.5785 9.12784 20.0103 9.12784C19.1438 9.12784 18.4535 8.94744 17.9393 8.58665C17.4279 8.22301 17.1282 7.72869 17.0401 7.10369L18.8256 7.00994C18.8796 7.27415 19.0103 7.47585 19.2177 7.61506C19.4251 7.75142 19.6907 7.8196 20.0146 7.8196C20.3327 7.8196 20.5884 7.75852 20.7816 7.63636C20.9776 7.51136 21.0771 7.35085 21.0799 7.15483C21.0771 6.99006 21.0075 6.85511 20.8711 6.75C20.7347 6.64205 20.5245 6.55966 20.2404 6.50284L19.1069 6.27699C18.4677 6.14915 17.9918 5.92756 17.6793 5.61222C17.3697 5.29687 17.2148 4.89489 17.2148 4.40625C17.2148 3.9858 17.3285 3.62358 17.5558 3.3196C17.7859 3.01562 18.1083 2.78125 18.5231 2.61648C18.9407 2.4517 19.4293 2.36932 19.989 2.36932C20.8157 2.36932 21.4663 2.54403 21.9407 2.89347C22.418 3.2429 22.6964 3.71875 22.7759 4.32102ZM27.5497 2.45455V3.81818H23.608V2.45455H27.5497ZM24.5028 0.886364H26.3182V6.98864C26.3182 7.15625 26.3438 7.28693 26.3949 7.38068C26.446 7.47159 26.517 7.53551 26.608 7.57244C26.7017 7.60937 26.8097 7.62784 26.9318 7.62784C27.017 7.62784 27.1023 7.62074 27.1875 7.60653C27.2727 7.58949 27.3381 7.5767 27.3835 7.56818L27.669 8.91903C27.5781 8.94744 27.4503 8.98011 27.2855 9.01705C27.1207 9.05682 26.9205 9.08097 26.6847 9.08949C26.2472 9.10653 25.8636 9.0483 25.5341 8.91477C25.2074 8.78125 24.9531 8.57386 24.7713 8.29261C24.5895 8.01136 24.5 7.65625 24.5028 7.22727V0.886364ZM28.7322 9V2.45455H30.4922V3.59659H30.5604C30.6797 3.19034 30.88 2.88352 31.1612 2.67614C31.4425 2.46591 31.7663 2.3608 32.1328 2.3608C32.2237 2.3608 32.3217 2.36648 32.4268 2.37784C32.532 2.3892 32.6243 2.40483 32.7038 2.42472V4.03551C32.6186 4.00994 32.5007 3.98722 32.3501 3.96733C32.1996 3.94744 32.0618 3.9375 31.9368 3.9375C31.6697 3.9375 31.4311 3.99574 31.2209 4.11222C31.0135 4.22585 30.8487 4.38494 30.7266 4.58949C30.6072 4.79403 30.5476 5.02983 30.5476 5.29688V9H28.7322ZM36.2951 9.12784C35.6332 9.12784 35.0607 8.98722 34.5778 8.70597C34.0977 8.42187 33.7269 8.02699 33.4656 7.52131C33.2042 7.01278 33.0735 6.4233 33.0735 5.75284C33.0735 5.0767 33.2042 4.4858 33.4656 3.98011C33.7269 3.47159 34.0977 3.0767 34.5778 2.79545C35.0607 2.51136 35.6332 2.36932 36.2951 2.36932C36.957 2.36932 37.5281 2.51136 38.0082 2.79545C38.4911 3.0767 38.8633 3.47159 39.1246 3.98011C39.386 4.4858 39.5167 5.0767 39.5167 5.75284C39.5167 6.4233 39.386 7.01278 39.1246 7.52131C38.8633 8.02699 38.4911 8.42187 38.0082 8.70597C37.5281 8.98722 36.957 9.12784 36.2951 9.12784ZM36.3036 7.72159C36.6048 7.72159 36.8562 7.63636 37.0579 7.46591C37.2596 7.29261 37.4116 7.05682 37.5138 6.75852C37.619 6.46023 37.6715 6.12074 37.6715 5.74006C37.6715 5.35938 37.619 5.01989 37.5138 4.72159C37.4116 4.4233 37.2596 4.1875 37.0579 4.0142C36.8562 3.84091 36.6048 3.75426 36.3036 3.75426C35.9996 3.75426 35.744 3.84091 35.5366 4.0142C35.332 4.1875 35.1772 4.4233 35.0721 4.72159C34.9698 5.01989 34.9187 5.35938 34.9187 5.74006C34.9187 6.12074 34.9698 6.46023 35.0721 6.75852C35.1772 7.05682 35.332 7.29261 35.5366 7.46591C35.744 7.63636 35.9996 7.72159 36.3036 7.72159ZM41.6069 11.4545C41.3768 11.4545 41.1609 11.4361 40.9592 11.3991C40.7603 11.3651 40.5955 11.321 40.4648 11.267L40.8739 9.91193C41.087 9.97727 41.2788 10.0128 41.4492 10.0185C41.6225 10.0241 41.7717 9.98438 41.8967 9.89915C42.0245 9.81392 42.1282 9.66903 42.2077 9.46449L42.3143 9.1875L39.9663 2.45455H41.8754L43.2305 7.26136H43.2987L44.6665 2.45455H46.5884L44.0444 9.70739C43.9222 10.0597 43.756 10.3665 43.5458 10.6278C43.3384 10.892 43.0756 11.0952 42.7575 11.2372C42.4393 11.3821 42.0558 11.4545 41.6069 11.4545Z" fill="#494758"/>
</svg>
